<svg width="56" height="56" viewBox="0 0 56 56" fill="none" xmlns="http://www.w3.org/2000/svg">
<g id="Frame" clip-path="url(#clip0_114_8)">
<g id="Group">
<path id="Vector" d="M53.422 33.5792V30.0234C53.422 28.3653 52.0723 27.0156 50.4142 27.0156H23.8514C22.1933 27.0156 20.8436 28.3653 20.8436 30.0234V33.5792C19.3648 33.9467 18.2656 35.2855 18.2656 36.8769V48.1698C18.2656 49.5272 19.3692 50.6308 20.7266 50.6308H23.4216V55.1797C23.4216 55.6325 23.7891 56 24.2419 56H28.1094C28.4889 56 28.8181 55.7397 28.9067 55.3711L30.0453 50.6308H44.2203L45.3589 55.3711C45.402 55.5502 45.5041 55.7095 45.6487 55.8236C45.7933 55.9377 45.9721 55.9998 46.1562 56H50.0237C50.4766 56 50.8441 55.6325 50.8441 55.1797V50.6308H53.5391C54.8964 50.6308 56 49.5272 56 48.1698V36.8769C56 35.2855 54.9008 33.9467 53.422 33.5792ZM23.8514 28.6562H50.4142C51.1678 28.6562 51.7814 29.2698 51.7814 30.0234V33.5792C50.3027 33.9467 49.2034 35.2855 49.2034 36.8769V37.3559H39.8672C38.7691 37.3559 37.7858 37.8569 37.1328 38.6422C36.4798 37.8569 35.4966 37.3559 34.3984 37.3559H25.0622V36.8769C25.0622 35.2855 23.963 33.9467 22.4842 33.5792V30.0234C22.4842 29.2698 23.0978 28.6562 23.8514 28.6562ZM25.0622 38.9977H34.3984C35.4539 38.9977 36.3125 39.8562 36.3125 40.9117V43.82H25.0622V38.9977ZM49.2023 43.82H37.952V40.9117C37.952 39.8562 38.8106 38.9977 39.8661 38.9977H49.2023V43.82ZM25.0622 45.4606H49.2023V48.9902H25.0622V45.4606ZM19.9062 48.1698V36.8769C19.9062 35.9078 20.6948 35.1192 21.6639 35.1192C22.633 35.1192 23.4216 35.9078 23.4216 36.8769V48.9902H20.7266C20.2738 48.9902 19.9062 48.6227 19.9062 48.1698ZM27.463 54.3594H25.0622V50.6308H28.3577L27.463 54.3594ZM46.8027 54.3594L45.908 50.6308H49.2034V54.3594H46.8027ZM54.3594 48.1698C54.3594 48.6227 53.9919 48.9902 53.5391 48.9902H50.8441V36.8769C50.8441 35.9078 51.6327 35.1192 52.6017 35.1192C53.5708 35.1192 54.3594 35.9078 54.3594 36.8769V48.1698ZM22.3672 22.4219H51.8984C53.2558 22.4219 54.3594 21.3183 54.3594 19.9609V2.46094C54.3594 1.10359 53.2558 0 51.8984 0H22.3672C21.0098 0 19.9062 1.10359 19.9062 2.46094V19.9609C19.9062 21.3183 21.0098 22.4219 22.3672 22.4219ZM21.5469 2.46094C21.5469 2.00813 21.9144 1.64062 22.3672 1.64062H51.8984C52.3512 1.64062 52.7188 2.00813 52.7188 2.46094V19.9609C52.7188 20.4137 52.3512 20.7812 51.8984 20.7812H22.3672C21.9144 20.7812 21.5469 20.4137 21.5469 19.9609V2.46094Z" fill="white"/>
<path id="Vector_2" d="M24.0078 19.1406H50.2578C50.7106 19.1406 51.0781 18.7731 51.0781 18.3203V4.10156C51.0781 3.64875 50.7106 3.28125 50.2578 3.28125H24.0078C23.555 3.28125 23.1875 3.64875 23.1875 4.10156V18.3203C23.1875 18.7731 23.555 19.1406 24.0078 19.1406ZM42.4233 12.9905C42.5261 12.9019 42.6759 12.9019 42.7787 12.9905L48.0397 17.5H37.1623L42.4233 12.9905ZM34.6413 17.5H26.2248L31.4858 12.9905C31.5886 12.9019 31.7384 12.9019 31.8412 12.9905L35.8717 16.4445L34.6413 17.4989V17.5ZM49.4364 4.92188V16.5364L43.8463 11.7447C43.1244 11.1256 42.0766 11.1256 41.3547 11.7447L37.1317 15.365L32.9088 11.7447C32.1869 11.1256 31.1391 11.1256 30.4172 11.7447L24.827 16.5364V4.92188H49.4364Z" fill="white"/>
<path id="Vector_3" d="M37.1328 12.0312C38.7909 12.0312 40.1406 10.6816 40.1406 9.02344C40.1406 7.36531 38.7909 6.01562 37.1328 6.01562C35.4747 6.01562 34.125 7.36531 34.125 9.02344C34.125 10.6816 35.4747 12.0312 37.1328 12.0312ZM37.1328 7.65625C37.8864 7.65625 38.5 8.26984 38.5 9.02344C38.5 9.77703 37.8864 10.3906 37.1328 10.3906C36.3792 10.3906 35.7656 9.77703 35.7656 9.02344C35.7656 8.26984 36.3792 7.65625 37.1328 7.65625ZM12.3047 51.0781H10.3906V44.7891C10.3906 43.5247 9.43141 42.4802 8.20312 42.3434V29.9141H10.9375V35.4922C10.9375 35.945 11.305 36.3125 11.7578 36.3125C12.2106 36.3125 12.5781 35.945 12.5781 35.4922V29.9141H13.9453C14.1728 29.9141 14.3905 29.8189 14.5458 29.6527C14.7011 29.4864 14.7798 29.2622 14.7634 29.0347L13.7791 15.2458C13.6872 13.9639 12.6098 12.9598 11.3247 12.9598H3.44203C2.15687 12.9598 1.07844 13.9639 0.987656 15.2458L0.0021875 29.0358C-0.0142188 29.2633 0.0645313 29.4864 0.219844 29.6537C0.296707 29.7361 0.389662 29.8018 0.492951 29.8468C0.596239 29.8917 0.707661 29.915 0.820312 29.9152H6.5625V42.3445C5.33422 42.4813 4.375 43.5258 4.375 44.7902V51.0792H2.46094C1.10359 51.0792 0 52.1828 0 53.5402V55.1808C0 55.6336 0.3675 56.0011 0.820312 56.0011H13.9453C14.3981 56.0011 14.7656 55.6336 14.7656 55.1808V53.5402C14.7656 52.1828 13.662 51.0792 12.3047 51.0792V51.0781ZM3.44203 14.6016H11.3247C11.7534 14.6016 12.1122 14.9362 12.1428 15.3639L12.752 23.8984H2.01359L2.62281 15.3639C2.65344 14.9362 3.01328 14.6016 3.44094 14.6016H3.44203ZM1.89656 25.5391H12.8691L13.0648 28.2734H1.70078L1.89656 25.5391ZM6.01562 44.7891C6.01562 44.3363 6.38312 43.9688 6.83594 43.9688H7.92969C8.3825 43.9688 8.75 44.3363 8.75 44.7891V51.0781H6.01562V44.7891ZM13.125 54.3594H1.64062V53.5391C1.64062 53.0863 2.00813 52.7188 2.46094 52.7188H12.3047C12.7575 52.7188 13.125 53.0863 13.125 53.5391V54.3594Z" fill="white"/>
</g>
</g>
<defs>
<clipPath id="clip0_114_8">
<rect width="56" height="56" fill="white"/>
</clipPath>
</defs>
</svg>
