<svg width="49" height="48" viewBox="0 0 49 48" fill="none" xmlns="http://www.w3.org/2000/svg">
<g id="map-marker-radius-outline">
<path id="Vector" d="M24.5 8C28.9 8 32.5 11.6 32.5 16C32.5 20.2 28.3 27 24.5 31.8C20.7 26.8 16.5 20.2 16.5 16C16.5 11.6 20.1 8 24.5 8ZM24.5 4C17.9 4 12.5 9.4 12.5 16C12.5 25 24.5 38 24.5 38C24.5 38 36.5 24.8 36.5 16C36.5 9.4 31.1 4 24.5 4ZM24.5 12C22.3 12 20.5 13.8 20.5 16C20.5 18.2 22.3 20 24.5 20C26.7 20 28.5 18.2 28.5 16C28.5 13.8 26.7 12 24.5 12ZM40.5 38C40.5 42.4 33.3 46 24.5 46C15.7 46 8.5 42.4 8.5 38C8.5 35.4 10.9 33.2 14.7 31.6L15.9 33.4C13.9 34.4 12.5 35.6 12.5 37C12.5 39.8 17.9 42 24.5 42C31.1 42 36.5 39.8 36.5 37C36.5 35.6 35.1 34.4 32.9 33.4L34.1 31.6C38.1 33.2 40.5 35.4 40.5 38Z" fill="#FF8E45"/>
</g>
</svg>
