<svg width="121" height="120" viewBox="0 0 121 120" fill="none" xmlns="http://www.w3.org/2000/svg">
<g id="Frame">
<g id="Group">
<g id="Group_2">
<path id="Vector" fill-rule="evenodd" clip-rule="evenodd" d="M73.9424 63.6649L99.1859 43.0701C99.8827 42.5102 99.5907 42.0989 98.5993 41.2901L73.9424 21.1739C73.1502 20.5277 72.0402 20.1855 70.9112 20.1471C69.7822 20.1855 68.6722 20.5275 67.88 21.1739L43.223 41.2901C42.2316 42.0989 41.9396 42.5102 42.6364 43.0701L67.88 63.6649C68.672 64.3111 69.7822 64.6533 70.9112 64.6917C72.0402 64.6533 73.1502 64.3113 73.9424 63.6649Z" fill="#FFA56A"/>
<path id="Vector_2" fill-rule="evenodd" clip-rule="evenodd" d="M73.9424 63.6652L96.0667 45.6152V43.7421C96.0667 43.5436 96.0595 43.459 95.9509 43.2865C95.8014 43.0484 95.5101 42.7809 95.098 42.4448L70.4411 22.3287C69.6876 21.7139 68.6997 21.3806 67.6919 21.3281L43.2236 41.2905C42.232 42.0994 41.9402 42.5107 42.637 43.0706L67.8806 63.6656C68.6725 64.3118 69.7827 64.654 70.9117 64.6922C72.0407 64.6537 73.1507 64.3118 73.9429 63.6656L73.9424 63.6652Z" fill="#FFB300"/>
<path id="Vector_3" fill-rule="evenodd" clip-rule="evenodd" d="M52.9043 20.3085V64.5306C52.9043 65.8323 53.9695 66.8975 55.2712 66.8975H77.4173C78.5137 66.8975 78.8775 66.9336 79.6913 66.0732L88.1995 57.0775C88.7152 56.5323 88.9179 56.0282 88.9179 55.3159V20.3085C88.9179 19.0068 87.8527 17.9415 86.5507 17.9415H55.2712C53.9693 17.9415 52.9043 19.0068 52.9043 20.3085Z" fill="#E0C0C0"/>
<path id="Vector_4" fill-rule="evenodd" clip-rule="evenodd" d="M52.9045 20.3087V64.5306C52.9045 65.8325 53.9698 66.8975 55.2715 66.8975H74.46C75.2906 66.8938 75.6584 66.8329 76.3767 66.0732L84.885 57.0775C85.4006 56.5323 85.6034 56.0282 85.6034 55.3159V20.3087C85.6034 19.0068 84.5381 17.9415 83.2362 17.9415H55.2712C53.9693 17.9415 52.9045 19.0068 52.9045 20.3087Z" fill="#FFE0E0"/>
<path id="Vector_5" fill-rule="evenodd" clip-rule="evenodd" d="M62.7494 44.7475C62.5953 44.7475 62.4427 44.7171 62.3003 44.6582C62.1579 44.5992 62.0285 44.5127 61.9195 44.4037C61.8105 44.2947 61.724 44.1653 61.665 44.0229C61.606 43.8805 61.5757 43.7279 61.5757 43.5738C61.5757 43.4196 61.606 43.267 61.665 43.1246C61.724 42.9822 61.8105 42.8528 61.9195 42.7438C62.0285 42.6348 62.1579 42.5483 62.3003 42.4894C62.4427 42.4304 62.5953 42.4 62.7494 42.4H79.0725C79.2266 42.4 79.3792 42.4304 79.5216 42.4894C79.6641 42.5483 79.7934 42.6348 79.9024 42.7438C80.0114 42.8528 80.0979 42.9822 80.1569 43.1246C80.2159 43.267 80.2462 43.4196 80.2462 43.5738C80.2462 43.7279 80.2159 43.8805 80.1569 44.0229C80.0979 44.1653 80.0114 44.2947 79.9024 44.4037C79.7934 44.5127 79.6641 44.5992 79.5216 44.6582C79.3792 44.7171 79.2266 44.7475 79.0725 44.7475H62.7494ZM62.7494 52.5777C62.4381 52.5777 62.1396 52.4541 61.9195 52.234C61.6993 52.0138 61.5757 51.7153 61.5757 51.404C61.5757 51.0927 61.6993 50.7941 61.9195 50.574C62.1396 50.3539 62.4381 50.2302 62.7494 50.2302H79.0725C79.2266 50.2302 79.3792 50.2606 79.5216 50.3196C79.6641 50.3786 79.7934 50.465 79.9024 50.574C80.0114 50.683 80.0979 50.8124 80.1569 50.9548C80.2159 51.0972 80.2462 51.2499 80.2462 51.404C80.2462 51.5581 80.2159 51.7108 80.1569 51.8532C80.0979 51.9956 80.0114 52.125 79.9024 52.234C79.7934 52.343 79.6641 52.4294 79.5216 52.4884C79.3792 52.5474 79.2266 52.5777 79.0725 52.5777H62.7494ZM62.7494 37.7041C62.5953 37.7041 62.4427 37.6737 62.3003 37.6147C62.1579 37.5557 62.0285 37.4693 61.9195 37.3603C61.8105 37.2513 61.724 37.1219 61.665 36.9795C61.606 36.8371 61.5757 36.6845 61.5757 36.5303C61.5757 36.3762 61.606 36.2235 61.665 36.0811C61.724 35.9387 61.8105 35.8093 61.9195 35.7004C62.0285 35.5914 62.1579 35.5049 62.3003 35.4459C62.4427 35.3869 62.5953 35.3566 62.7494 35.3566H79.0725C79.3838 35.3566 79.6823 35.4802 79.9024 35.7004C80.1226 35.9205 80.2462 36.219 80.2462 36.5303C80.2462 36.8416 80.1226 37.1402 79.9024 37.3603C79.6823 37.5804 79.3838 37.7041 79.0725 37.7041H62.7494Z" fill="#CFA8A8"/>
<path id="Vector_6" fill-rule="evenodd" clip-rule="evenodd" d="M62.7494 37.7041C62.5953 37.7041 62.4427 37.6737 62.3003 37.6147C62.1579 37.5557 62.0285 37.4693 61.9195 37.3603C61.8105 37.2513 61.724 37.1219 61.665 36.9795C61.606 36.8371 61.5757 36.6845 61.5757 36.5303C61.5757 36.3762 61.606 36.2235 61.665 36.0811C61.724 35.9387 61.8105 35.8093 61.9195 35.7004C62.0285 35.5914 62.1579 35.5049 62.3003 35.4459C62.4427 35.3869 62.5953 35.3566 62.7494 35.3566H77.8987C78.21 35.3566 78.5086 35.4802 78.7287 35.7004C78.9488 35.9205 79.0725 36.219 79.0725 36.5303C79.0725 36.8416 78.9488 37.1402 78.7287 37.3603C78.5086 37.5804 78.21 37.7041 77.8987 37.7041H62.7494ZM62.7494 44.7475C62.5953 44.7475 62.4427 44.7171 62.3003 44.6582C62.1579 44.5992 62.0285 44.5127 61.9195 44.4037C61.8105 44.2947 61.724 44.1653 61.665 44.0229C61.606 43.8805 61.5757 43.7279 61.5757 43.5738C61.5757 43.4196 61.606 43.267 61.665 43.1246C61.724 42.9822 61.8105 42.8528 61.9195 42.7438C62.0285 42.6348 62.1579 42.5483 62.3003 42.4894C62.4427 42.4304 62.5953 42.4 62.7494 42.4H77.8987C78.0529 42.4 78.2055 42.4304 78.3479 42.4894C78.4903 42.5483 78.6197 42.6348 78.7287 42.7438C78.8377 42.8528 78.9241 42.9822 78.9831 43.1246C79.0421 43.267 79.0725 43.4196 79.0725 43.5738C79.0725 43.7279 79.0421 43.8805 78.9831 44.0229C78.9241 44.1653 78.8377 44.2947 78.7287 44.4037C78.6197 44.5127 78.4903 44.5992 78.3479 44.6582C78.2055 44.7171 78.0529 44.7475 77.8987 44.7475H62.7494ZM62.7494 52.5777C62.4381 52.5777 62.1396 52.4541 61.9195 52.234C61.6993 52.0138 61.5757 51.7153 61.5757 51.404C61.5757 51.0927 61.6993 50.7941 61.9195 50.574C62.1396 50.3539 62.4381 50.2302 62.7494 50.2302H77.8987C78.0529 50.2302 78.2055 50.2606 78.3479 50.3196C78.4903 50.3786 78.6197 50.465 78.7287 50.574C78.8377 50.683 78.9241 50.8124 78.9831 50.9548C79.0421 51.0972 79.0725 51.2499 79.0725 51.404C79.0725 51.5581 79.0421 51.7108 78.9831 51.8532C78.9241 51.9956 78.8377 52.125 78.7287 52.234C78.6197 52.343 78.4903 52.4294 78.3479 52.4884C78.2055 52.5474 78.0529 52.5777 77.8987 52.5777H62.7494Z" fill="#E0C0C0"/>
<path id="Vector_7" fill-rule="evenodd" clip-rule="evenodd" d="M71.2265 79.5325H97.5497C98.8912 79.5325 99.989 78.4347 99.989 77.0931V43.6413C99.989 43.2562 99.8986 42.8913 99.7378 42.5667C99.6471 42.3834 99.5338 42.2122 99.4005 42.0571C99.6703 42.4263 99.6222 42.719 99.1851 43.0701L73.9415 63.6651C73.1965 64.2731 72.2222 64.6059 71.2261 64.6638V79.5325H71.2265Z" fill="#ED9600"/>
<path id="Vector_8" fill-rule="evenodd" clip-rule="evenodd" d="M42.4213 42.0571C42.0418 42.4977 41.833 43.0598 41.833 43.6413V77.0931C41.833 78.4347 42.9308 79.5325 44.2724 79.5325H71.2269V64.6638C70.0206 64.7341 68.7824 64.401 67.8803 63.6651L42.6367 43.0701C42.1996 42.719 42.1515 42.426 42.4215 42.0571H42.4213ZM71.2269 79.5325H93.6273C94.9686 79.5325 96.0667 78.4347 96.0667 77.0931V45.6152L73.9424 63.6651C73.4397 64.075 72.4281 64.3565 71.2269 64.5096V79.5325Z" fill="#FF8E45"/>
<path id="Vector_9" fill-rule="evenodd" clip-rule="evenodd" d="M73.9423 58.2869L99.2 78.88C98.7504 79.2991 98.1587 79.5322 97.5441 79.5325H44.2664C43.6518 79.5323 43.06 79.2991 42.6104 78.88L67.8047 58.3387C69.51 56.9481 72.2719 56.9249 73.9423 58.2869Z" fill="#E8813F"/>
<path id="Vector_10" fill-rule="evenodd" clip-rule="evenodd" d="M62.7494 30.6609C62.4381 30.6609 62.1396 30.5372 61.9195 30.3171C61.6993 30.097 61.5757 29.7984 61.5757 29.4871C61.5757 29.1758 61.6993 28.8773 61.9195 28.6571C62.1396 28.437 62.4381 28.3134 62.7494 28.3134H79.0725C79.3838 28.3134 79.6823 28.437 79.9024 28.6571C80.1226 28.8773 80.2462 29.1758 80.2462 29.4871C80.2462 29.7984 80.1226 30.097 79.9024 30.3171C79.6823 30.5372 79.3838 30.6609 79.0725 30.6609H62.7494Z" fill="#CFA8A8"/>
<path id="Vector_11" fill-rule="evenodd" clip-rule="evenodd" d="M62.7494 30.6609C62.4381 30.6609 62.1396 30.5372 61.9195 30.3171C61.6993 30.097 61.5757 29.7984 61.5757 29.4871C61.5757 29.1758 61.6993 28.8773 61.9195 28.6571C62.1396 28.437 62.4381 28.3134 62.7494 28.3134H77.8987C78.21 28.3134 78.5086 28.437 78.7287 28.6571C78.9488 28.8773 79.0725 29.1758 79.0725 29.4871C79.0725 29.7984 78.9488 30.097 78.7287 30.3171C78.5086 30.5372 78.21 30.6609 77.8987 30.6609H62.7494Z" fill="#E0C0C0"/>
<path id="Vector_12" fill-rule="evenodd" clip-rule="evenodd" d="M49.6825 93.3725C51.525 93.3725 53.0325 91.7284 53.0325 89.7186C53.0325 87.7089 51.525 86.0647 49.6825 86.0647H34.9026L35.8277 79.3857C36.8732 70.5777 28.6089 66.9193 28.6089 70.5639V74.9108C28.6089 80.1847 26.1632 87.6887 20.835 87.6887V111.845C23.786 113.61 25.4041 115.296 28.7425 115.296H47.8216C49.664 115.296 51.1715 113.652 51.1715 111.642C51.1715 109.632 49.664 107.988 47.8216 107.988C51.6171 107.988 53.0329 106.794 53.0329 104.334C53.0329 101.78 51.3086 100.657 49.683 100.681C51.5254 100.681 53.0329 99.0364 53.0329 97.0267C53.0329 95.0169 51.5254 93.373 49.683 93.373L49.6825 93.3725Z" fill="#FFBCAB"/>
<g id="Group_3">
<path id="Vector_13" fill-rule="evenodd" clip-rule="evenodd" d="M51.1519 112.029C51.1645 111.9 51.1709 111.771 51.1709 111.642C51.1709 109.632 49.6634 107.988 47.821 107.988H41.0647C39.9193 107.988 38.9822 108.914 38.9822 110.046C38.9822 111.179 39.9193 112.105 41.0647 112.105H50.5941C50.787 112.105 50.9743 112.078 51.1519 112.029ZM53.0323 104.346V104.334C53.0323 101.78 51.308 100.657 49.6824 100.68C49.9226 100.68 50.1572 100.652 50.3834 100.599H39.6751C38.5297 100.599 37.5924 101.525 37.5924 102.657C37.5924 103.789 38.5294 104.716 39.6751 104.716H51.8457C52.2696 104.716 52.6836 104.587 53.0323 104.346ZM49.6824 93.3726C49.8516 93.3726 50.0178 93.3585 50.1805 93.3318H38.037C36.8916 93.3318 35.9546 94.258 35.9546 95.3901C35.9546 96.5221 36.8916 97.4483 38.037 97.4483H51.8455C52.2692 97.4488 52.683 97.32 53.0316 97.0792L53.0323 97.0265C53.0323 95.0169 51.5251 93.3726 49.6824 93.3726Z" fill="#FA9F82"/>
</g>
<path id="Vector_14" fill-rule="evenodd" clip-rule="evenodd" d="M6.24699 86.0648H19.0868C20.0482 86.0648 20.8347 86.8793 20.8347 87.8747V113.486C20.8347 114.481 20.0482 115.296 19.0868 115.296H6.24699C5.28559 115.296 4.49902 114.481 4.49902 113.486V87.8747C4.49902 86.8793 5.28559 86.0648 6.24699 86.0648Z" fill="#7E9194"/>
<path id="Vector_15" fill-rule="evenodd" clip-rule="evenodd" d="M6.24699 86.0648H19.0868C20.0482 86.0648 20.8347 86.8793 20.8347 87.8747V111.184C20.8347 112.179 20.0482 112.994 19.0868 112.994H6.24699C5.28559 112.994 4.49902 112.179 4.49902 111.184V87.8747C4.49902 86.8793 5.28559 86.0648 6.24699 86.0648Z" fill="#3E5B5F"/>
<path id="Vector_16" fill-rule="evenodd" clip-rule="evenodd" d="M100.301 24.9248V30.9773C100.301 33.1935 102.977 34.3017 104.544 32.7346L116.435 20.8439C117.403 19.8759 117.403 18.2969 116.435 17.3292L104.544 5.43815C102.977 3.87111 100.301 4.97947 100.301 7.19549V13.3506C81.3132 13.3457 72.9235 29.4377 79.0653 42.4959C80.2179 44.9465 83.0804 44.9388 83.0504 41.4014C82.9606 30.8055 89.0408 25.844 100.301 24.9248Z" fill="#1BBD87"/>
<path id="Vector_17" fill-rule="evenodd" clip-rule="evenodd" d="M100.301 24.9248V30.9773C100.301 32.5125 101.206 31.8253 102.014 31.0179L112.188 20.8439C113.156 19.8759 113.156 18.2969 112.188 17.3292L101.815 6.956C101.016 6.15749 100.301 6.07382 100.301 7.19554V13.3507C81.6094 13.3458 73.1878 28.9394 78.7885 41.8826C78.7997 41.73 78.8049 41.5697 78.8035 41.4014C78.6774 26.543 89.1295 25.8368 100.301 24.9246L100.301 24.9248Z" fill="#32D69F"/>
</g>
</g>
</g>
</svg>
