<svg width="49" height="48" viewBox="0 0 49 48" fill="none" xmlns="http://www.w3.org/2000/svg">
<g id="phone-dial">
<path id="Vector" d="M13.7 21.6C16.5 27.2 21.3 31.8 26.9 34.8L31.3 30.4C31.9 29.8 32.7 29.6 33.3 30C35.5 30.8 37.9 31.2 40.5 31.2C41.7 31.2 42.5 32 42.5 33.2V40C42.5 41.2 41.7 42 40.5 42C21.7 42 6.5 26.8 6.5 8C6.5 6.8 7.5 6 8.5 6H15.5C16.7 6 17.5 6.8 17.5 8C17.5 10.4 17.9 12.8 18.7 15.2C18.9 15.8 18.7 16.6 18.3 17.2L13.7 21.6ZM28.5 6C27.3 6 26.5 6.8 26.5 8C26.5 9.2 27.3 10 28.5 10C29.7 10 30.5 9.2 30.5 8C30.5 6.8 29.7 6 28.5 6ZM34.5 6C33.3 6 32.5 6.8 32.5 8C32.5 9.2 33.3 10 34.5 10C35.7 10 36.5 9.2 36.5 8C36.5 6.8 35.7 6 34.5 6ZM40.5 6C39.3 6 38.5 6.8 38.5 8C38.5 9.2 39.3 10 40.5 10C41.7 10 42.5 9.2 42.5 8C42.5 6.8 41.7 6 40.5 6ZM28.5 12C27.3 12 26.5 12.8 26.5 14C26.5 15.2 27.3 16 28.5 16C29.7 16 30.5 15.2 30.5 14C30.5 12.8 29.7 12 28.5 12ZM34.5 12C33.3 12 32.5 12.8 32.5 14C32.5 15.2 33.3 16 34.5 16C35.7 16 36.5 15.2 36.5 14C36.5 12.8 35.7 12 34.5 12ZM40.5 12C39.3 12 38.5 12.8 38.5 14C38.5 15.2 39.3 16 40.5 16C41.7 16 42.5 15.2 42.5 14C42.5 12.8 41.7 12 40.5 12ZM28.5 18C27.3 18 26.5 18.8 26.5 20C26.5 21.2 27.3 22 28.5 22C29.7 22 30.5 21.2 30.5 20C30.5 18.8 29.7 18 28.5 18ZM34.5 18C33.3 18 32.5 18.8 32.5 20C32.5 21.2 33.3 22 34.5 22C35.7 22 36.5 21.2 36.5 20C36.5 18.8 35.7 18 34.5 18ZM40.5 18C39.3 18 38.5 18.8 38.5 20C38.5 21.2 39.3 22 40.5 22C41.7 22 42.5 21.2 42.5 20C42.5 18.8 41.7 18 40.5 18Z" fill="#FF8E45"/>
</g>
</svg>
